#!OML:ASF I:\golf\golf\golf 2\Subject 1\2002-09-07\Subject1.ASF
:FULLY-SPECIFIED
:DEGREES
346
root 0.312246 17.5024 -5.07074 38.3475 22.2771 2.72852
lowerback 29.0879 2.63791 3.35165
upperback 11.7078 4.80394 6.85698
thorax -3.1641 2.31302 4.16777
lowerneck -16.4306 -7.15344 -1.61344
upperneck 8.43612 -9.04633 -1.75067
head 5.17367 -4.61588 -1.11382
rclavicle -3.18055e-015 -1.04163e-013
rhumerus 11.0889 19.2587 -55.9054
rradius 34.9337
rwrist -19.9941
rhand -19.1085 8.50734
rfingers 7.12502
rthumb 7.20044 -21.3502
lclavicle -3.18055e-015 -1.04163e-013
lhumerus -15.2722 -72.5934 105.666
lradius 71.0534
lwrist -7.84392
lhand -47.0147 28.4134
lfingers 7.12502
lthumb -19.7214 -302.567
rfemur -71.3237 -5.33052 20.2724
rtibia 42.859
rfoot -0.774649 -2.61973
rtoes 11.1197
lfemur -38.7496 -3.67188 -11.9317
ltibia 33.192
lfoot -19.592 -6.926
ltoes -14.2866
347
root 0.351973 17.5163 -5.12451 36.9743 21.6556 2.28524
lowerback 29.1294 2.78646 2.97624
upperback 11.595 4.89736 6.84535
thorax -3.34671 2.347 4.33444
lowerneck -16.7579 -7.0286 -1.60377
upperneck 9.00122 -8.84186 -1.92336
head 5.39728 -4.52548 -1.17792
rclavicle 9.54166e-015 -4.77083e-014
rhumerus 9.41614 19.6437 -56.8066
rradius 35.2872
rwrist -19.689
rhand -18.3315 8.68545
rfingers 7.12502
rthumb 7.95044 -21.145
lclavicle 9.54166e-015 -4.77083e-014
lhumerus -15.9867 -72.5317 106.246
lradius 70.8073
lwrist -7.73618
lhand -39.1945 32.4491
lfingers 7.12502
lthumb -12.1912 -297.926
rfemur -70.079 -4.89677 20.1925
rtibia 42.7787
rfoot -0.74436 -2.4414
rtoes 12.0369
lfemur -37.3344 -3.16927 -12.2936
ltibia 33.3144
lfoot -20.145 -6.55464
ltoes -15.4167
348
root 0.402379 17.5031 -5.19119 36.1644 21.0613 2.06361
lowerback 28.5882 2.84307 2.62043
upperback 11.3897 4.84696 6.74161
thorax -3.34647 2.31856 4.44799
lowerneck -16.97 -6.87129 -1.39808
upperneck 9.3152 -8.6288 -2.21693
head 5.50983 -4.43537 -1.29668
rclavicle -6.36111e-014 1.59028e-014
rhumerus 7.82616 20.1394 -57.6486
rradius 35.6426
rwrist -19.4934
rhand -17.6874 8.74912
rfingers 7.12502
rthumb 8.57206 -21.0569
lclavicle -6.36111e-014 1.59028e-014
lhumerus -16.4268 -72.5907 106.614
lradius 70.4063
lwrist -7.45941
lhand -39.5789 32.6238
lfingers 7.12502
lthumb -12.5619 -297.774
rfemur -69.533 -4.72683 20.0706
rtibia 42.7774
rfoot -0.587885 -2.12643
rtoes 11.377
lfemur -36.6261 -2.90254 -12.77
ltibia 33.5621
lfoot -20.6528 -5.97909
ltoes -16.4391
349
root 0.45558 17.4925 -5.25722 35.2947 20.4816 1.80321
lowerback 28.0315 2.89566 2.36024
upperback 11.217 4.81726 6.65758
thorax -3.29443 2.30209 4.52427
lowerneck -17.0695 -6.73068 -1.1452
upperneck 9.41246 -8.44252 -2.6074
head 5.53013 -4.36548 -1.44519
rclavicle 8.5875e-014 -4.29375e-014
rhumerus 6.25632 20.5966 -58.409
rradius 36.0904
rwrist -19.4458
rhand -17.2975 8.44056
rfingers 7.12502
rthumb 8.94831 -21.3497
lclavicle 8.5875e-014 -4.29375e-014
lhumerus -16.736 -72.5695 106.91
lradius 69.9079
lwrist -7.26531
lhand -40.3851 32.3434
lfingers 7.12502
lthumb -13.339 -298.103
rfemur -68.9573 -4.58471 20.0352
rtibia 42.8317
rfoot -0.411641 -1.76002
rtoes 9.87981
lfemur -35.893 -2.78439 -13.1407
ltibia 33.8204
lfoot -21.1306 -5.32644
ltoes -16.7436
350
root 0.513075 17.4845 -5.32394 34.277 20.0243 1.45643
lowerback 27.5566 2.87429 2.3288
upperback 11.0769 4.75937 6.613
thorax -3.22443 2.27618 4.52086
lowerneck -17.2182 -6.61571 -0.968207
upperneck 9.59062 -8.28255 -2.90595
head 5.5921 -4.30419 -1.56049
rclavicle 6.67916e-014 5.08889e-014
rhumerus 4.74506 20.9934 -59.1277
rradius 36.4742
rwrist -19.3893
rhand -17.0434 8.39606
rfingers 7.12502
rthumb 9.19342 -21.3835
lclavicle 6.67916e-014 5.08889e-014
lhumerus -16.6618 -72.4944 106.859
lradius 69.4389
lwrist -7.56361
lhand -41.0586 32.0362
lfingers 7.12502
lthumb -13.9881 -298.454
rfemur -68.2321 -4.51531 20.1285
rtibia 42.8957
rfoot -0.264827 -1.43392
rtoes 9.77412
lfemur -35.0455 -2.85109 -13.33
ltibia 34.096
lfoot -21.5754 -4.53346
ltoes -17.0029
351
root 0.564818 17.4769 -5.39148 33.3206 19.6642 1.15347
lowerback 26.9572 2.78434 2.21698
upperback 10.9284 4.59429 6.58434
thorax -3.10343 2.19752 4.61655
lowerneck -17.2172 -6.4336 -0.800949
upperneck 9.70906 -8.05025 -3.07878
head 5.61885 -4.19787 -1.62126
rclavicle -5.56597e-014 -2.38542e-014
rhumerus 3.36816 21.5498 -59.9089
rradius 36.6152
rwrist -19.1934
rhand -17.0078 9.03606
rfingers 7.12502
rthumb 9.22786 -20.742
lclavicle -5.56597e-014 -2.38542e-014
lhumerus -16.7895 -72.1286 106.853
lradius 69.1202
lwrist -7.96022
lhand -40.7402 32.1339
lfingers 7.12502
lthumb -13.6812 -298.336
rfemur -67.5201 -4.47132 20.2023
rtibia 42.9225
rfoot -0.114343 -1.2214
rtoes 10.5028
lfemur -34.2692 -2.69204 -13.561
ltibia 34.3697
lfoot -21.9782 -4.22781
ltoes -16.3071
352
root 0.621756 17.4763 -5.46015 32.2272 19.2632 0.87841
lowerback 26.5782 2.67358 2.27495
upperback 10.8064 4.44859 6.506
thorax -3.03933 2.13147 4.54706
lowerneck -17.2658 -6.32324 -0.915597
upperneck 9.81105 -7.88289 -2.99066
head 5.67021 -4.11347 -1.56511
rclavicle -9.54166e-015 -1.35174e-014
rhumerus 1.92364 21.9647 -60.698
rradius 36.8412
rwrist -18.8191
rhand -17.2714 9.56241
rfingers 7.12502
rthumb 8.97344 -20.2267
lclavicle -9.54166e-015 -1.35174e-014
lhumerus -17.1655 -71.851 107.08
lradius 68.8035
lwrist -8.04706
lhand -40.1022 32.1532
lfingers 7.12502
lthumb -13.0663 -298.276
rfemur -66.6044 -4.38996 20.1614
rtibia 42.9202
rfoot -0.132781 -0.954348
rtoes 9.80425
lfemur -33.3185 -2.45536 -13.8741
ltibia 34.6107
lfoot -22.3908 -4.08077
ltoes -15.2737
353
root 0.674636 17.4657 -5.52842 31.2506 18.5448 0.388746
lowerback 26.0004 2.76937 2.21388
upperback 10.656 4.52505 6.48626
thorax -2.94027 2.16809 4.55089
lowerneck -17.3213 -6.27002 -1.28185
upperneck 9.91075 -7.73876 -2.8588
head 5.73326 -4.04659 -1.45888
rclavicle -4.77083e-014 -6.36111e-014
rhumerus 0.454366 22.4102 -61.295
rradius 37.1393
rwrist -18.4425
rhand -17.7929 9.78575
rfingers 7.12502
rthumb 8.47021 -20.0244
lclavicle -4.77083e-014 -6.36111e-014
lhumerus -17.6021 -71.6554 107.558
lradius 68.3861
lwrist -8.04611
lhand -39.2217 32.3416
lfingers 7.12502
lthumb -12.2175 -298.035
rfemur -65.9382 -4.00704 20.2668
rtibia 42.9042
rfoot -0.133992 -0.665888
rtoes 10.1979
lfemur -32.5119 -2.01359 -14.0593
ltibia 34.8688
lfoot -22.8283 -3.63991
ltoes -15.0587
354
root 0.729168 17.4503 -5.58669 30.2076 17.9061 0.114626
lowerback 25.4647 2.80343 1.93752
upperback 10.5481 4.48317 6.5078
thorax -2.82285 2.14283 4.75805
lowerneck -17.4214 -6.13493 -1.50897
upperneck 10.0342 -7.48738 -2.93015
head 5.7982 -3.93904 -1.429
rclavicle -2.70347e-014 4.77083e-015
rhumerus -0.749977 22.9534 -61.7573
rradius 37.3277
rwrist -18.4989
rhand -17.9595 9.73155
rfingers 7.12502
rthumb 8.30946 -20.085
lclavicle -2.70347e-014 4.77083e-015
lhumerus -17.8803 -71.3197 107.918
lradius 67.9346
lwrist -8.0232
lhand -39.1444 32.034
lfingers 7.12502
lthumb -12.1429 -298.338
rfemur -65.09 -3.74714 20.185
rtibia 42.8912
rfoot -0.120611 -0.451515
rtoes 10.7392
lfemur -31.5498 -1.83018 -14.3558
ltibia 35.1438
lfoot -23.2365 -3.11721
ltoes -14.8455
355
root 0.782457 17.4342 -5.65295 29.2787 17.3939 -0.157537
lowerback 24.8718 2.76192 1.76502
upperback 10.3904 4.37234 6.53001
thorax -2.71738 2.08684 4.9256
lowerneck -17.5565 -5.99548 -1.71612
upperneck 10.2232 -7.23716 -2.96073
head 5.89027 -3.82865 -1.39185
rclavicle 2.70347e-014 3.18055e-014
rhumerus -1.89468 23.3752 -62.2334
rradius 37.618
rwrist -18.747
rhand -17.7561 9.39901
rfingers 7.12502
rthumb 8.5057 -20.4097
lclavicle 2.70347e-014 3.18055e-014
lhumerus -18.1665 -70.9014 108.175
lradius 67.6127
lwrist -8.05893
lhand -40.0066 30.8475
lfingers 7.12502
lthumb -12.9742 -299.576
rfemur -64.3864 -3.5335 20.1432
rtibia 42.9032
rfoot -0.0781923 -0.200582
rtoes 9.42912
lfemur -30.7687 -1.62709 -14.5853
ltibia 35.4221
lfoot -23.6063 -2.53305
ltoes -15.82
356
root 0.834262 17.4177 -5.7241 28.4278 16.9464 -0.486062
lowerback 24.2528 2.70289 1.75811
upperback 10.1942 4.27374 6.50882
thorax -2.62475 2.04131 4.94568
lowerneck -17.6632 -5.87332 -1.79015
upperneck 10.3716 -7.04936 -2.95009
head 5.96027 -3.74019 -1.36581
rclavicle 1.27222e-014 -5.56597e-015
rhumerus -3.09274 23.7499 -62.7782
rradius 37.9247
rwrist -18.9011
rhand -17.9625 9.36605
rfingers 7.12502
rthumb 8.30651 -20.4506
lclavicle 1.27222e-014 -5.56597e-015
lhumerus -18.513 -70.5298 108.355
lradius 67.3598
lwrist -8.2336
lhand -39.4053 30.5174
lfingers 7.12502
lthumb -12.3945 -299.87
rfemur -63.8076 -3.35571 20.2045
rtibia 42.9421
rfoot -0.06253 0.0715209
rtoes 7.86835
lfemur -30.1001 -1.45325 -14.7009
ltibia 35.6661
lfoot -23.998 -1.94753
ltoes -17.2504
357
root 0.884516 17.4111 -5.78218 27.2867 16.7395 -0.527801
lowerback 24.0527 2.50001 1.69692
upperback 10.0625 3.99659 6.40523
thorax -2.6471 1.909 4.94284
lowerneck -17.809 -5.69815 -1.57605
upperneck 10.4825 -6.85142 -3.00137
head 6.01187 -3.6406 -1.40277
rclavicle 2.06736e-014 7.15625e-015
rhumerus -4.24958 24.0363 -63.5005
rradius 38.1825
rwrist -18.8664
rhand -18.8136 9.84489
rfingers 7.12502
rthumb 7.4851 -20.0027
lclavicle 2.06736e-014 7.15625e-015
lhumerus -18.7197 -70.1962 108.263
lradius 66.953
lwrist -8.3452
lhand -38.1165 30.7706
lfingers 7.12502
lthumb -11.1516 -299.546
rfemur -62.7195 -3.44779 20.0252
rtibia 42.9682
rfoot -0.203312 0.163976
rtoes 8.20286
lfemur -29.0294 -1.49051 -14.9821
ltibia 35.9291
lfoot -24.4436 -1.84375
ltoes -17.3104
358
root 0.934278 17.3997 -5.84271 26.2987 16.3989 -0.590319
lowerback 23.747 2.33533 1.54044
upperback 9.87117 3.74141 6.25567
thorax -2.68767 1.7859 4.93855
lowerneck -17.9964 -5.512 -1.36718
upperneck 10.6421 -6.64421 -2.99612
head 6.08862 -3.53216 -1.42244
rclavicle -1.27222e-014 7.87187e-014
rhumerus -5.40614 24.1862 -64.3047
rradius 38.4562
rwrist -18.6701
rhand -19.3739 10.1571
rfingers 7.12502
rthumb 6.94418 -19.709
lclavicle -1.27222e-014 7.87187e-014
lhumerus -18.9052 -69.855 108.126
lradius 66.5577
lwrist -7.92317
lhand -37.9604 30.2622
lfingers 7.12502
lthumb -11.001 -300.046
rfemur -61.828 -3.46951 19.8505
rtibia 42.9492
rfoot -0.282902 0.294649
rtoes 9.16575
lfemur -28.1808 -1.40326 -15.2779
ltibia 36.2619
lfoot -24.7296 -1.89952
ltoes -17.0419
359
root 0.98865 17.3746 -5.91921 25.5015 15.7001 -0.885523
lowerback 23.2502 2.32153 1.41343
upperback 9.63797 3.67511 6.13063
thorax -2.69397 1.75397 4.89761
lowerneck -18.1302 -5.3589 -1.37481
upperneck 10.7567 -6.44557 -2.89051
head 6.15347 -3.42794 -1.37449
rclavicle 4.45278e-014 -3.81667e-014
rhumerus -6.51355 24.2998 -64.9799
rradius 38.7219
rwrist -18.5136
rhand -19.3201 10.0445
rfingers 7.12502
rthumb 6.99619 -19.8199
lclavicle 4.45278e-014 -3.81667e-014
lhumerus -18.9214 -69.4781 108.022
lradius 66.2507
lwrist -7.28714
lhand -37.5109 29.9886
lfingers 7.12502
lthumb -10.5675 -300.297
rfemur -61.3257 -3.19815 19.8383
rtibia 42.8602
rfoot -0.0415199 0.620678
rtoes 9.23113
lfemur -27.681 -1.12035 -15.4781
ltibia 36.6913
lfoot -24.9629 -1.96552
ltoes -16.0582
360
root 1.04244 17.3541 -5.99461 24.6327 15.0211 -1.18557
lowerback 22.7422 2.31248 1.28069
upperback 9.48472 3.6152 6.07539
thorax -2.61013 1.72338 4.93705
lowerneck -18.2056 -5.19606 -1.36361
upperneck 10.7381 -6.2221 -2.92546
head 6.16097 -3.32252 -1.36636
rclavicle -2.06736e-014 -6.75868e-014
rhumerus -7.49928 24.3096 -65.5329
rradius 39.0085
rwrist -18.3462
rhand -19.4849 10.1621
rfingers 7.12502
rthumb 6.83709 -19.7075
lclavicle -2.06736e-014 -6.75868e-014
lhumerus -18.8378 -68.9623 107.969
lradius 65.8187
lwrist -7.2851
lhand -36.5862 30.0556
lfingers 7.12502
lthumb -9.67543 -300.187
rfemur -60.698 -2.83792 19.7899
rtibia 42.7286
rfoot 0.229922 0.867318
rtoes 8.81253
lfemur -27.1018 -0.866501 -15.6546
ltibia 37.1299
lfoot -25.3463 -1.96652
ltoes -15.4012
